<?xml version="1.0" standalone="no"?>
<!DOCTYPE svg PUBLIC "-//W3C//DTD SVG 20010904//EN"
 "http://www.w3.org/TR/2001/REC-SVG-20010904/DTD/svg10.dtd">
<svg version="1.0" xmlns="http://www.w3.org/2000/svg"
 width="2524.000000pt" height="1603.000000pt" viewBox="0 0 2524.000000 1603.000000"
 preserveAspectRatio="xMidYMid meet">

<g transform="translate(0.000000,1603.000000) scale(0.100000,-0.100000)"
fill="#000000" stroke="none">
<path d="M6800 14910 l0 -1120 1070 0 1070 0 0 -3860 0 -3860 -375 0 -375 0 0
3430 0 3430 -585 0 -585 0 0 -4015 0 -4015 2826 0 c1848 0 2876 4 2972 10
1185 84 2283 536 3187 1311 154 132 442 420 574 574 401 468 723 1000 945
1562 268 681 388 1365 373 2118 -7 294 -14 393 -48 640 -123 903 -483 1776
-1034 2510 -298 397 -688 789 -1084 1089 -730 553 -1591 915 -2487 1045 -368
54 -358 54 -1871 58 l-1413 4 0 -590 0 -591 1363 0 c1159 0 1388 -2 1528 -16
781 -74 1524 -361 2154 -832 456 -342 839 -769 1138 -1272 517 -871 703 -1944
511 -2960 -142 -754 -488 -1458 -1004 -2043 -502 -568 -1164 -1003 -1880
-1236 -340 -110 -677 -175 -1050 -201 -80 -5 -530 -10 -1002 -10 l-858 0 0
2950 0 2950 818 0 c449 0 860 -5 913 -10 737 -72 1330 -629 1444 -1356 25
-160 16 -448 -18 -594 -48 -203 -123 -378 -232 -540 -239 -357 -592 -596
-1020 -691 -94 -21 -129 -23 -577 -26 l-478 -4 0 -960 0 -959 480 0 c517 0
650 8 903 55 1355 250 2452 1287 2782 2630 38 153 68 329 86 500 18 166 15
552 -5 730 -93 825 -461 1574 -1058 2151 -540 522 -1220 856 -1953 958 -237
34 -373 36 -2136 36 l-1769 0 0 1070 0 1070 -1120 0 -1120 0 0 -1120z"/>
<path d="M17725 6229 c-329 -35 -655 -168 -915 -376 -758 -603 -943 -1725
-422 -2566 120 -196 309 -397 497 -532 183 -132 453 -249 685 -297 124 -25
402 -35 537 -19 330 40 644 175 908 391 102 83 259 251 338 361 74 104 212
372 251 489 68 206 96 368 103 590 6 198 -5 325 -43 499 -205 924 -1041 1554
-1939 1460z m488 -923 c176 -34 306 -90 429 -186 70 -55 208 -210 208 -235 0
-11 -358 -218 -369 -213 -4 2 -32 32 -62 68 -151 178 -389 257 -609 201 -106
-27 -175 -68 -255 -153 -112 -118 -165 -267 -165 -462 0 -327 157 -553 430
-622 51 -13 96 -15 210 -12 168 6 267 32 364 95 l56 37 0 143 0 143 -225 0
-225 0 0 150 0 150 425 0 425 0 0 -379 0 -379 -52 -47 c-214 -192 -513 -287
-862 -272 -200 9 -337 42 -490 118 -258 129 -436 355 -508 646 -31 125 -31
341 0 466 74 299 264 535 534 662 90 42 228 82 328 95 97 12 316 4 413 -14z"/>
<path d="M11720 1550 l0 -30 155 0 155 0 0 -489 c0 -338 3 -498 11 -522 32
-94 105 -141 219 -141 64 0 157 20 188 40 20 13 -6 65 -27 56 -138 -58 -257
-40 -301 46 -19 38 -20 58 -20 555 l0 515 -190 0 -190 0 0 -30z"/>
<path d="M3416 1519 c-20 -16 -26 -29 -26 -60 0 -49 27 -79 73 -79 70 0 103
85 52 135 -30 30 -64 32 -99 4z"/>
<path d="M20840 1483 c-125 -21 -240 -96 -312 -203 -64 -96 -89 -178 -95 -316
-7 -148 9 -235 60 -337 90 -181 244 -266 461 -255 101 5 176 29 253 81 l48 32
3 258 2 257 -108 0 c-60 0 -143 -3 -185 -6 l-77 -7 0 -93 0 -94 75 0 75 0 0
-99 0 -99 -32 -13 c-38 -16 -121 -15 -163 1 -57 22 -97 62 -129 129 -28 60
-31 77 -34 182 -3 86 0 131 12 172 55 191 237 266 378 156 l36 -29 68 75 67
76 -24 25 c-77 83 -243 130 -379 107z"/>
<path d="M10 931 l0 -541 120 0 120 0 0 185 0 185 124 0 c95 0 139 5 188 20
76 23 146 68 183 115 111 146 87 398 -47 495 -85 62 -145 73 -430 78 l-258 4
0 -541z m490 323 c55 -32 73 -65 73 -133 -1 -77 -24 -119 -83 -148 -37 -19
-60 -23 -142 -23 l-98 0 0 166 0 167 108 -5 c84 -3 117 -9 142 -24z"/>
<path d="M7690 931 l0 -541 203 0 c143 0 220 5 265 15 230 54 351 237 352 531
0 222 -84 395 -229 468 -100 51 -143 58 -373 63 l-218 5 0 -541z m428 312
c104 -49 135 -121 136 -313 1 -134 1 -136 -32 -203 -19 -39 -47 -78 -67 -93
-43 -32 -114 -54 -177 -54 l-48 0 0 343 c0 189 3 347 7 351 14 13 129 -6 181
-31z"/>
<path d="M6265 1315 l-7 -135 -119 0 -119 0 0 -30 0 -30 119 0 120 0 3 -282
c4 -316 6 -329 75 -400 46 -48 111 -69 207 -70 116 0 236 31 236 60 0 38 -14
43 -61 25 -31 -12 -76 -17 -154 -17 -130 -1 -165 13 -205 85 -25 44 -25 47
-28 322 l-3 277 215 0 216 0 0 30 0 30 -215 0 -215 0 0 135 0 135 -29 0 -29 0
-7 -135z"/>
<path d="M18960 1398 c0 -29 -3 -90 -7 -135 l-6 -83 -118 0 -119 0 0 -30 0
-30 119 0 120 0 3 -277 c4 -236 7 -285 22 -325 22 -58 88 -119 147 -137 67
-20 199 -16 284 10 l73 21 -10 30 c-8 21 -15 27 -27 23 -59 -23 -143 -37 -210
-33 -97 4 -147 29 -181 89 -25 44 -25 47 -28 322 l-3 277 215 0 216 0 0 30 0
30 -215 0 -215 0 0 135 0 135 -30 0 c-30 0 -30 -1 -30 -52z"/>
<path d="M1472 1181 c-74 -25 -159 -86 -206 -148 l-41 -53 -2 68 c-5 112 -10
132 -38 132 l-25 0 0 -395 0 -395 30 0 30 0 0 246 0 245 30 45 c69 99 169 177
255 199 43 10 164 7 203 -6 39 -13 40 -12 48 27 5 28 3 31 -34 42 -59 18 -188
14 -250 -7z"/>
<path d="M2253 1181 c-113 -39 -197 -129 -235 -254 -17 -57 -20 -87 -16 -171
4 -88 9 -112 36 -169 38 -81 104 -150 180 -185 51 -24 68 -27 167 -27 132 1
177 17 259 95 216 204 138 627 -130 710 -83 25 -190 26 -261 1z m261 -72 c60
-29 111 -85 145 -158 23 -50 26 -68 26 -166 0 -100 -3 -116 -29 -173 -113
-244 -439 -244 -552 0 -26 57 -29 73 -29 173 0 105 2 114 33 177 39 79 100
138 169 161 68 24 175 18 237 -14z"/>
<path d="M4293 1186 c-191 -62 -310 -264 -275 -470 36 -218 191 -346 420 -346
97 0 170 17 245 58 50 27 55 37 34 66 -13 18 -16 18 -58 -7 -119 -69 -275 -76
-392 -19 -105 52 -161 136 -182 271 l-7 44 343 -4 344 -4 -2 80 c-3 148 -65
255 -181 312 -48 23 -71 28 -152 30 -60 2 -110 -2 -137 -11z m242 -70 c88 -41
145 -122 160 -227 l7 -46 -138 -6 c-75 -4 -214 -7 -307 -7 l-170 0 6 45 c15
109 102 211 216 251 61 22 168 17 226 -10z"/>
<path d="M5329 1186 c-120 -34 -208 -110 -262 -224 -30 -62 -32 -75 -32 -172
0 -126 17 -184 79 -267 80 -108 202 -158 366 -151 88 3 105 7 171 40 41 20 85
48 97 61 22 23 22 24 4 47 l-18 23 -52 -37 c-152 -110 -359 -99 -482 24 -67
67 -94 137 -94 245 -1 125 20 181 99 262 52 52 71 64 129 82 127 39 247 20
333 -54 l41 -35 22 27 21 27 -33 28 c-18 15 -58 40 -88 55 -47 24 -69 28 -155
30 -60 1 -118 -3 -146 -11z"/>
<path d="M8983 1186 c-190 -62 -308 -263 -274 -470 24 -145 93 -241 218 -303
70 -35 84 -38 178 -41 112 -5 178 9 267 54 50 26 57 38 35 68 -13 18 -16 18
-58 -7 -64 -37 -143 -57 -226 -57 -188 0 -322 119 -348 309 l-6 44 343 -4 343
-4 -1 86 c-2 71 -7 98 -29 147 -32 72 -92 133 -160 163 -62 28 -217 36 -282
15z m256 -77 c71 -35 110 -86 136 -173 29 -96 33 -92 -112 -99 -71 -4 -208 -7
-307 -7 l-179 0 5 38 c8 58 48 133 98 183 60 60 131 88 226 88 60 1 80 -4 133
-30z"/>
<path d="M10983 1186 c-190 -62 -308 -263 -274 -470 24 -145 93 -241 218 -303
70 -35 84 -38 178 -41 112 -5 178 9 267 54 50 26 57 38 35 68 -13 18 -16 18
-58 -7 -64 -37 -143 -57 -226 -57 -188 0 -322 119 -348 309 l-6 44 343 -4 343
-4 -1 86 c-2 71 -7 98 -29 147 -32 72 -92 133 -160 163 -62 28 -217 36 -282
15z m256 -77 c71 -35 110 -86 136 -173 29 -96 33 -92 -112 -99 -71 -4 -208 -7
-307 -7 l-179 0 6 40 c13 100 102 211 198 248 36 14 78 21 125 21 60 1 80 -4
133 -30z"/>
<path d="M12943 1181 c-76 -28 -135 -73 -176 -133 -52 -75 -68 -129 -74 -239
-7 -120 16 -207 76 -291 70 -97 175 -148 306 -148 128 0 226 46 300 142 95
121 111 335 37 486 -31 64 -115 145 -179 174 -69 31 -219 36 -290 9z m257 -69
c66 -34 115 -86 147 -156 26 -56 28 -71 28 -176 0 -106 -2 -120 -28 -172 -53
-109 -159 -178 -273 -178 -122 0 -219 62 -276 178 -31 63 -33 72 -33 177 0 93
4 118 23 159 43 94 101 149 189 182 57 21 168 14 223 -14z"/>
<path d="M14030 1191 c-42 -13 -133 -62 -171 -92 -20 -16 -39 -26 -43 -22 -3
3 -6 28 -6 55 0 47 -1 48 -30 48 l-30 0 0 -575 0 -575 35 0 35 0 0 224 0 225
50 -34 c74 -49 150 -75 225 -75 253 0 420 270 350 568 -41 174 -149 263 -318
261 -40 0 -83 -4 -97 -8z m206 -79 c49 -25 89 -70 118 -132 18 -38 21 -64 21
-175 0 -122 -2 -134 -29 -192 -48 -105 -135 -171 -236 -180 -74 -7 -151 16
-229 68 l-61 41 2 230 3 230 56 45 c87 68 159 95 244 90 45 -2 85 -11 111 -25z"/>
<path d="M14983 1186 c-190 -62 -308 -263 -274 -470 24 -145 93 -241 218 -303
70 -35 84 -38 178 -41 113 -5 184 10 268 55 50 28 55 38 34 67 -13 18 -16 18
-58 -7 -64 -37 -143 -57 -226 -57 -188 0 -322 119 -348 309 l-6 44 343 -4 343
-4 3 45 c11 150 -69 296 -193 351 -62 28 -217 36 -282 15z m256 -77 c71 -35
110 -86 136 -173 29 -96 33 -92 -112 -99 -71 -4 -208 -7 -307 -7 l-179 0 6 40
c13 100 102 211 198 248 36 14 78 21 125 21 60 1 80 -4 133 -30z"/>
<path d="M15870 1182 c-19 -11 -48 -37 -65 -60 -16 -22 -33 -41 -37 -41 -5 -1
-8 22 -8 49 0 49 -1 50 -30 50 l-30 0 0 -395 0 -395 35 0 35 0 0 308 0 307 36
48 c92 126 213 115 243 -21 7 -33 11 -167 11 -347 l0 -295 30 0 30 0 0 298 c0
284 1 299 21 332 46 77 103 120 158 120 42 0 90 -45 101 -95 5 -22 10 -181 10
-352 l0 -313 35 0 36 0 -3 348 c-3 324 -4 350 -23 387 -29 57 -75 85 -143 85
-69 0 -119 -27 -163 -88 l-32 -45 -24 47 c-13 26 -38 56 -56 66 -42 26 -120
26 -167 2z"/>
<path d="M16983 1186 c-190 -62 -308 -263 -274 -470 24 -145 93 -241 218 -303
70 -35 84 -38 178 -41 113 -5 184 10 268 55 50 28 55 38 34 67 -13 18 -16 18
-58 -7 -64 -37 -143 -57 -226 -57 -188 0 -322 119 -348 309 l-6 44 343 -4 343
-4 3 45 c11 150 -69 296 -193 351 -62 28 -217 36 -282 15z m256 -77 c71 -35
110 -86 136 -173 29 -96 33 -92 -112 -99 -71 -4 -208 -7 -307 -7 l-179 0 6 40
c13 100 102 211 198 248 36 14 78 21 125 21 60 1 80 -4 133 -30z"/>
<path d="M18037 1186 c-50 -19 -110 -59 -168 -113 -54 -50 -59 -46 -59 48 0
59 0 59 -30 59 l-30 0 0 -395 0 -395 35 0 35 0 0 288 1 287 70 62 c85 75 146
106 219 111 104 8 178 -29 216 -105 17 -34 20 -71 24 -343 l5 -305 38 -3 39
-3 -4 308 c-3 258 -7 315 -21 351 -25 64 -53 99 -105 129 -39 23 -59 28 -137
30 -60 2 -103 -1 -128 -11z"/>
<path d="M21942 1181 c-74 -25 -159 -86 -206 -148 l-41 -53 -2 68 c-5 112 -10
132 -38 132 l-25 0 0 -395 0 -395 30 0 30 0 0 247 0 246 52 68 c73 96 149 153
233 174 43 10 164 7 203 -6 39 -13 40 -12 48 27 5 28 3 31 -34 42 -59 18 -188
14 -250 -7z"/>
<path d="M22723 1181 c-113 -39 -197 -129 -235 -254 -17 -57 -20 -87 -16 -171
4 -88 9 -112 36 -169 38 -81 104 -150 180 -185 51 -24 68 -27 167 -27 132 1
177 17 259 95 216 204 138 627 -130 710 -83 25 -190 26 -261 1z m261 -72 c60
-29 111 -85 145 -158 23 -50 26 -68 26 -166 0 -100 -3 -116 -29 -173 -53 -115
-155 -182 -276 -182 -121 0 -223 67 -276 182 -26 57 -29 73 -29 173 0 105 2
114 33 177 39 79 100 138 169 161 68 24 175 18 237 -14z"/>
<path d="M24783 1181 c-50 -18 -157 -83 -169 -102 -14 -23 -24 -4 -24 46 0 54
0 55 -30 55 l-30 0 0 -575 0 -575 36 0 35 0 -3 225 c-2 124 -2 225 0 225 2 0
18 -11 35 -24 18 -13 57 -37 87 -52 49 -26 65 -29 150 -29 84 0 102 3 151 28
69 33 142 109 175 181 74 163 47 417 -58 525 -58 61 -115 84 -218 88 -66 3
-97 -1 -137 -16z m244 -77 c97 -60 139 -167 131 -336 -4 -84 -9 -106 -37 -162
-91 -185 -273 -227 -459 -106 l-62 40 2 232 3 232 56 44 c88 68 159 94 246 89
59 -3 82 -10 120 -33z"/>
<path d="M3050 1150 l0 -30 195 0 196 0 -3 -463 -3 -463 -27 -41 c-61 -93
-220 -113 -379 -49 -10 5 -19 -1 -27 -19 -12 -25 -10 -27 35 -48 67 -30 239
-37 313 -12 65 22 121 76 146 141 17 45 19 90 22 532 l3 482 -235 0 -236 0 0
-30z"/>
<path d="M9754 1018 c40 -90 119 -268 176 -395 l104 -233 41 0 40 0 177 395
176 395 -37 0 -36 0 -104 -237 c-58 -131 -128 -293 -156 -361 -29 -67 -54
-124 -57 -127 -2 -3 -32 59 -66 138 -34 78 -106 241 -160 362 l-98 220 -36 3
-37 3 73 -163z"/>
<path d="M23502 873 c3 -297 4 -310 26 -358 28 -61 55 -90 107 -118 33 -18 57
-22 140 -22 89 0 106 3 156 28 31 15 82 51 112 81 31 29 59 51 62 48 3 -3 5
-39 5 -79 l0 -74 33 3 32 3 3 398 2 397 -40 0 -40 0 0 -287 0 -287 -58 -56
c-32 -30 -83 -68 -113 -85 -48 -27 -63 -30 -139 -30 -97 0 -139 18 -177 74
-39 57 -43 96 -43 389 l0 282 -36 0 -35 0 3 -307z"/>
</g>
</svg>
